<svg width="58" height="25" xmlns="http://www.w3.org/2000/svg" xmlns:xlink="http://www.w3.org/1999/xlink" xml:space="preserve" overflow="hidden"><defs><clipPath id="clip0"><rect x="264" y="633" width="58" height="25"/></clipPath><clipPath id="clip1"><rect x="264" y="633" width="58" height="25"/></clipPath><clipPath id="clip2"><rect x="264" y="634" width="58" height="24"/></clipPath><clipPath id="clip3"><rect x="264" y="634" width="58" height="22"/></clipPath></defs><g clip-path="url(#clip0)" transform="translate(-264 -633)"><g clip-path="url(#clip1)"><g clip-path="url(#clip2)"><g clip-path="url(#clip3)"><g><path d="M0 0 877.385 0 877.385 21.9346 0 21.9346Z" fill="#333333" fill-rule="nonzero" fill-opacity="1" transform="matrix(1.15026 0 0 1 264 634)"/><path d="M22.429 8.49848 22.429 13.4332 21.575 13.4332 21.575 9.56533 20.0272 13.4332 19.4617 13.4332 17.8907 9.56533 17.8907 13.4332 17.0891 13.4332 17.0891 8.49848 18.3192 8.49848 19.7357 12.1565 19.7562 12.1565 21.2631 8.49848 22.429 8.49848ZM23.1431 8.87452C23.1429 8.80849 23.1571 8.74324 23.1848 8.68328 23.2125 8.62337 23.253 8.57023 23.3034 8.52764 23.4011 8.43647 23.5298 8.38575 23.6634 8.38575 23.797 8.38575 23.9257 8.43647 24.0234 8.52764 24.0718 8.57151 24.1106 8.62502 24.1373 8.68474 24.1639 8.74447 24.1777 8.80913 24.1779 8.87452 24.1787 8.93864 24.1659 9.00225 24.1403 9.06101 24.1146 9.11983 24.0768 9.17252 24.0292 9.21552 23.9311 9.30632 23.8015 9.35544 23.6678 9.35252 23.6008 9.35508 23.5339 9.34402 23.4712 9.31998 23.4086 9.2959 23.3515 9.25939 23.3034 9.21264 23.2542 9.1711 23.2146 9.11932 23.1874 9.06092 23.1602 9.00252 23.1461 8.93891 23.146 8.87452L23.1431 8.87452ZM24.0642 9.89759 24.0642 13.4332 23.2335 13.4332 23.2335 9.89759 24.0642 9.89759ZM26.5913 12.8298C26.7325 12.8266 26.8719 12.7969 27.0023 12.7424 27.1489 12.6854 27.2871 12.609 27.4133 12.5151L27.4133 13.2904C27.2717 13.369 27.1195 13.4269 26.9615 13.4624 26.7786 13.5023 26.5919 13.5219 26.4047 13.5206 26.1728 13.5292 25.9415 13.4898 25.7255 13.405 25.5094 13.3202 25.3132 13.1916 25.149 13.0275 24.9849 12.8634 24.8564 12.6671 24.7715 12.4511 24.6867 12.235 24.6473 12.0038 24.6559 11.7718 24.6327 11.2536 24.8078 10.746 25.1455 10.3523 25.3277 10.1634 25.5488 10.0164 25.7933 9.92122 26.0379 9.82612 26.3002 9.78522 26.5622 9.8014 26.7215 9.80204 26.8801 9.8226 27.0343 9.86263 27.1663 9.89069 27.2938 9.9368 27.4133 9.99959L27.4133 10.7982C27.292 10.7088 27.1598 10.6353 27.0198 10.5797 26.8884 10.5299 26.7492 10.5042 26.6088 10.5039 26.461 10.4979 26.3136 10.5233 26.1764 10.5786 26.0392 10.6339 25.9154 10.7177 25.813 10.8245 25.604 11.0659 25.4992 11.3804 25.5216 11.6989 25.5049 12.0052 25.6096 12.3058 25.813 12.5355 25.9161 12.6346 26.0382 12.7118 26.172 12.7624 26.3058 12.813 26.4484 12.8359 26.5913 12.8298ZM29.7975 9.83928C29.8567 9.83444 29.9162 9.83444 29.9753 9.83928 30.0212 9.84605 30.0661 9.85774 30.1094 9.87429L30.1094 10.7166C30.0507 10.678 29.9869 10.6476 29.9199 10.6263 29.8257 10.5965 29.7273 10.5818 29.6285 10.5825 29.5282 10.5827 29.4294 10.6062 29.3398 10.6512 29.2502 10.6962 29.1724 10.7616 29.1126 10.842 28.9523 11.0749 28.8772 11.3559 28.8998 11.6377L28.8998 13.4216 28.0399 13.4216 28.0399 9.89759 28.8736 9.89759 28.8736 10.4543C28.9403 10.2726 29.0601 10.1152 29.2175 10.0025 29.3837 9.88672 29.5836 9.82932 29.7859 9.83928L29.7975 9.83928ZM30.1561 11.7164C30.1421 11.4634 30.1787 11.2101 30.2638 10.9713 30.3489 10.7326 30.4807 10.5132 30.6516 10.326 30.833 10.1501 31.0489 10.0136 31.2857 9.92533 31.5225 9.83704 31.775 9.7988 32.0274 9.81305 32.2663 9.79966 32.5053 9.83691 32.7288 9.92231 32.9523 10.0077 33.1553 10.1393 33.3244 10.3086 33.648 10.6745 33.8154 11.1527 33.7908 11.6406 33.8033 11.8904 33.7659 12.1402 33.6809 12.3755 33.5958 12.6107 33.4647 12.8266 33.2953 13.0106 33.1178 13.1843 32.9062 13.3193 32.674 13.4071 32.4417 13.4949 32.1937 13.5336 31.9457 13.5206 31.7065 13.5337 31.4672 13.4975 31.2426 13.4143 31.0179 13.3311 30.8128 13.2026 30.6399 13.0368 30.4719 12.862 30.3413 12.6547 30.2561 12.4277 30.1709 12.2006 30.1329 11.9586 30.1444 11.7164L30.1561 11.7164ZM31.0305 11.6902C31.0105 11.9928 31.0994 12.2926 31.2812 12.5355 31.3718 12.6347 31.4835 12.7124 31.6081 12.7628 31.7327 12.8133 31.867 12.8351 32.0011 12.827 32.1314 12.8352 32.2618 12.8132 32.3822 12.7627 32.5026 12.7121 32.6095 12.6343 32.6948 12.5355 32.8715 12.2797 32.9548 11.971 32.9309 11.661 32.9563 11.3497 32.8694 11.0395 32.6861 10.7866 32.6005 10.6888 32.4939 10.6118 32.3742 10.5613 32.2546 10.5108 32.125 10.4882 31.9953 10.4951 31.8623 10.4863 31.7292 10.508 31.6059 10.5585 31.4827 10.6091 31.3726 10.6871 31.2841 10.7866 31.0845 11.0437 30.9869 11.3655 31.0101 11.6902L31.0305 11.6902ZM35.0383 10.8157C35.0346 10.8694 35.0426 10.9233 35.0618 10.9736 35.0809 11.0239 35.1107 11.0695 35.1491 11.1072 35.3044 11.2157 35.4742 11.302 35.6533 11.3637 35.9127 11.4548 36.1459 11.6079 36.3324 11.8097 36.4683 11.9809 36.5395 12.1945 36.5336 12.413 36.538 12.5674 36.5058 12.7205 36.4394 12.8599 36.373 12.9992 36.2744 13.1208 36.1518 13.2146 35.8485 13.4258 35.4829 13.5285 35.1141 13.5061 34.9505 13.5044 34.7875 13.4868 34.6273 13.4536 34.4715 13.4234 34.3192 13.3775 34.1726 13.3166L34.1726 12.5122C34.3238 12.6174 34.4885 12.7018 34.6623 12.7628 34.8143 12.8202 34.975 12.8517 35.1374 12.8561 35.2807 12.8652 35.4241 12.8382 35.5542 12.7774 35.5983 12.7493 35.634 12.7098 35.6576 12.6631 35.6812 12.6165 35.6918 12.5643 35.6883 12.5122 35.6885 12.4561 35.6761 12.4008 35.6518 12.3503 35.6276 12.2998 35.5922 12.2555 35.5484 12.2207 35.3862 12.1051 35.2086 12.0129 35.0208 11.9467 34.7758 11.8573 34.5559 11.7104 34.3796 11.5182 34.2466 11.3414 34.1787 11.1242 34.1872 10.9032 34.1848 10.7517 34.2181 10.6018 34.2845 10.4656 34.3508 10.3293 34.4483 10.2107 34.569 10.1191 34.848 9.90404 35.1935 9.79363 35.5455 9.80725 35.6853 9.80935 35.8247 9.82297 35.9623 9.84806 36.094 9.87022 36.223 9.90637 36.347 9.9559L36.347 10.7458C36.2267 10.6677 36.0976 10.6041 35.9623 10.5563 35.8221 10.5054 35.6742 10.4788 35.5251 10.4776 35.3951 10.4706 35.266 10.5031 35.1549 10.5709 35.112 10.5977 35.0769 10.6351 35.0529 10.6796 35.0288 10.724 35.0168 10.774 35.0179 10.8245L35.0383 10.8157ZM36.9125 11.7077C36.8992 11.4547 36.9361 11.2016 37.0211 10.9629 37.1062 10.7243 37.2377 10.5049 37.408 10.3173 37.5864 10.147 37.7974 10.0144 38.0283 9.92775 38.2592 9.84111 38.5053 9.80209 38.7517 9.81305 38.9906 9.79966 39.2296 9.83691 39.4532 9.92231 39.6767 10.0077 39.8797 10.1393 40.0488 10.3086 40.3724 10.6745 40.5398 11.1527 40.5151 11.6406 40.5277 11.8904 40.4903 12.1402 40.4052 12.3755 40.3202 12.6107 40.1891 12.8266 40.0196 13.0106 39.8422 13.1843 39.6306 13.3193 39.3984 13.4071 39.1661 13.4949 38.9181 13.5336 38.6701 13.5206 38.4309 13.5337 38.1916 13.4975 37.967 13.4143 37.7423 13.3311 37.5372 13.2026 37.3643 13.0368 37.2005 12.86 37.0741 12.6519 36.993 12.425 36.9118 12.198 36.8775 11.957 36.8921 11.7164L36.9125 11.7077ZM37.7869 11.6814C37.7665 11.9846 37.8565 12.2849 38.0405 12.5267 38.1303 12.6262 38.2415 12.7041 38.3656 12.7546 38.4898 12.8051 38.6238 12.8268 38.7575 12.8182 38.8878 12.8265 39.0183 12.8045 39.1386 12.7539 39.259 12.7034 39.366 12.6256 39.4513 12.5267 39.6279 12.2709 39.7113 11.9622 39.6873 11.6523 39.7127 11.3409 39.6259 11.0308 39.4425 10.7779 39.3571 10.6799 39.2505 10.6027 39.1308 10.5522 39.0111 10.5018 38.8815 10.4792 38.7517 10.4864 38.6188 10.4776 38.4856 10.4993 38.3624 10.5498 38.2391 10.6003 38.129 10.6783 38.0405 10.7779 37.8357 11.036 37.7349 11.3615 37.7578 11.6902L37.7869 11.6814ZM43.325 10.568 42.0833 10.568 42.0833 13.4245 41.241 13.4245 41.241 10.568 40.658 10.568 40.658 9.89759 41.241 9.89759 41.241 9.40498C41.2348 9.23576 41.2637 9.06709 41.3259 8.90957 41.3881 8.75206 41.4822 8.60912 41.6024 8.48975 41.7262 8.37117 41.8725 8.27859 42.0327 8.21749 42.1929 8.15639 42.3637 8.12806 42.5351 8.13414 42.6247 8.13409 42.7142 8.13894 42.8032 8.14872 42.8735 8.15818 42.9427 8.1738 43.0102 8.19537L43.0102 8.91533C42.963 8.89248 42.9143 8.87302 42.8645 8.85702 42.7882 8.83271 42.7084 8.82092 42.6284 8.82206 42.553 8.81777 42.4776 8.83015 42.4076 8.85839 42.3375 8.88659 42.2746 8.92991 42.2232 8.98525 42.1062 9.12234 42.044 9.29773 42.0483 9.47786L42.0483 9.90632 43.29 9.90632 43.29 9.10187 44.1237 8.84829 44.1237 9.89759 44.9689 9.89759 44.9689 10.5767 44.1237 10.5767 44.1237 12.2323C44.1079 12.3951 44.1503 12.5582 44.2432 12.6928 44.2916 12.7415 44.3501 12.7788 44.4146 12.8025 44.479 12.8262 44.5478 12.8355 44.6162 12.8298 44.6761 12.8279 44.7351 12.816 44.7911 12.7949 44.8533 12.7732 44.9129 12.7448 44.9689 12.7103L44.9689 13.4011C44.8846 13.4402 44.7954 13.4677 44.7037 13.4828 44.5849 13.5082 44.4637 13.5209 44.3422 13.5206 44.1975 13.5303 44.0523 13.5094 43.9162 13.4591 43.7801 13.4089 43.6561 13.3305 43.5524 13.2292 43.3608 12.991 43.2669 12.6887 43.29 12.3839L43.325 10.568Z" fill="#FFFFFF" fill-rule="nonzero" fill-opacity="1" transform="matrix(1.15026 0 0 1 264 634)"/><path d="M10.3063 6.85457 6.3976 6.85457 6.3976 10.7633 10.3063 10.7633 10.3063 6.85457Z" fill="#F25022" fill-rule="nonzero" fill-opacity="1" transform="matrix(1.15026 0 0 1 264 634)"/><path d="M14.623 6.85457 10.7143 6.85457 10.7143 10.7633 14.623 10.7633 14.623 6.85457Z" fill="#7FBA00" fill-rule="nonzero" fill-opacity="1" transform="matrix(1.15026 0 0 1 264 634)"/><path d="M10.3063 11.1714 6.3976 11.1714 6.3976 15.0801 10.3063 15.0801 10.3063 11.1714Z" fill="#00A4EF" fill-rule="nonzero" fill-opacity="1" transform="matrix(1.15026 0 0 1 264 634)"/><path d="M14.623 11.1714 10.7143 11.1714 10.7143 15.0801 14.623 15.0801 14.623 11.1714Z" fill="#FFB900" fill-rule="nonzero" fill-opacity="1" transform="matrix(1.15026 0 0 1 264 634)"/><path d="M52.5517 4.11274 52.0948 4.11274 52.0948 17.8219 52.5517 17.8219 52.5517 4.11274Z" fill="#FFFFFF" fill-rule="nonzero" fill-opacity="1" transform="matrix(1.15026 0 0 1 264 634)"/><path d="M60.8841 11.3957 60.8841 13.2522 60.0383 13.2522 60.0383 8.13268 61.5911 8.13268C62.1792 8.13268 62.6348 8.26954 62.9583 8.54322 63.2823 8.81695 63.4441 9.20249 63.4441 9.69995 63.4441 10.1974 63.275 10.6043 62.9373 10.9209 62.5992 11.2374 62.1422 11.3957 61.5664 11.3957L60.8841 11.3957ZM60.8841 8.83239 60.8841 10.7031 61.4343 10.7031C61.7981 10.7031 62.0755 10.6186 62.266 10.4497 62.4561 10.2807 62.5516 10.0427 62.5516 9.73564 62.5516 9.13349 62.2016 8.83239 61.502 8.83239L60.8841 8.83239Z" fill="#FFFFFF" fill-rule="nonzero" fill-opacity="1" transform="matrix(1.15026 0 0 1 264 634)"/><path d="M66.8143 13.2522 66.0109 13.2522 66.0109 12.681 65.9967 12.681C65.7445 13.1189 65.3744 13.3379 64.8863 13.3379 64.5271 13.3379 64.2452 13.2403 64.0405 13.0451 63.838 12.8499 63.737 12.5917 63.737 12.2704 63.737 11.5802 64.1341 11.1779 64.9293 11.0637L66.0146 10.9102C66.0146 10.389 65.7669 10.1284 65.272 10.1284 64.8365 10.1284 64.4435 10.2783 64.0939 10.5782L64.0939 9.85345C64.4796 9.62496 64.9247 9.51072 65.4292 9.51072 66.3527 9.51072 66.8143 9.96532 66.8143 10.8745L66.8143 13.2522ZM66.0146 11.4564 65.2469 11.5635C65.0088 11.5945 64.8292 11.6528 64.7081 11.7385 64.5888 11.8218 64.5294 11.9693 64.5294 12.1811 64.5294 12.3359 64.5842 12.4632 64.6935 12.5632 64.8054 12.6607 64.9544 12.7095 65.1399 12.7095 65.3922 12.7095 65.6005 12.6215 65.7646 12.4453 65.9314 12.2669 66.0146 12.0431 66.0146 11.7741L66.0146 11.4564Z" fill="#FFFFFF" fill-rule="nonzero" fill-opacity="1" transform="matrix(1.15026 0 0 1 264 634)"/><path d="M69.9486 10.3854C69.849 10.3069 69.7046 10.2676 69.5168 10.2676 69.2719 10.2676 69.0671 10.3782 68.9026 10.5996 68.7386 10.8209 68.6563 11.122 68.6563 11.5028L68.6563 13.2522 67.8283 13.2522 67.8283 9.5964 68.6563 9.5964 68.6563 10.3497 68.6705 10.3497C68.7518 10.0926 68.8752 9.8927 69.042 9.7499 69.2111 9.60472 69.3989 9.53215 69.6059 9.53215 69.7558 9.53215 69.87 9.55477 69.9486 9.59997L69.9486 10.3854Z" fill="#FFFFFF" fill-rule="nonzero" fill-opacity="1" transform="matrix(1.15026 0 0 1 264 634)"/><path d="M72.6763 13.2129C72.5145 13.2938 72.3016 13.3343 72.0375 13.3343 71.3282 13.3343 70.9732 12.9939 70.9732 12.3132L70.9732 10.2462 70.3631 10.2462 70.3631 9.5964 70.9732 9.5964 70.9732 8.75027 71.8017 8.51466 71.8017 9.5964 72.6763 9.5964 72.6763 10.2462 71.8017 10.2462 71.8017 12.0741C71.8017 12.2906 71.841 12.4453 71.9196 12.5382 71.9982 12.631 72.1288 12.6774 72.3121 12.6774 72.4524 12.6774 72.5739 12.6369 72.6763 12.556L72.6763 13.2129Z" fill="#FFFFFF" fill-rule="nonzero" fill-opacity="1" transform="matrix(1.15026 0 0 1 264 634)"/><path d="M76.6465 13.2522 75.818 13.2522 75.818 11.1922C75.818 10.5092 75.5762 10.1676 75.0932 10.1676 74.841 10.1676 74.6326 10.2628 74.4685 10.4532 74.3045 10.6413 74.2222 10.8793 74.2222 11.1672L74.2222 13.2522 73.3905 13.2522 73.3905 9.5964 74.2222 9.5964 74.2222 10.2033 74.2364 10.2033C74.5101 9.74158 74.9054 9.51072 75.4218 9.51072 75.8194 9.51072 76.1228 9.64045 76.3321 9.89988 76.5414 10.1569 76.6465 10.5294 76.6465 11.0173L76.6465 13.2522Z" fill="#FFFFFF" fill-rule="nonzero" fill-opacity="1" transform="matrix(1.15026 0 0 1 264 634)"/><path d="M80.7556 11.6492 78.2637 11.6492C78.2728 11.9872 78.3766 12.2478 78.574 12.431 78.7741 12.6143 79.0479 12.706 79.3952 12.706 79.7854 12.706 80.1437 12.5893 80.4699 12.3561L80.4699 13.0237C80.1368 13.2331 79.6963 13.3379 79.1488 13.3379 78.611 13.3379 78.1888 13.1724 77.8817 12.8416 77.5769 12.5084 77.4247 12.0407 77.4247 11.4385 77.4247 10.8698 77.5924 10.4068 77.9278 10.0498 78.266 9.6904 78.685 9.51072 79.1845 9.51072 79.6844 9.51072 80.071 9.67139 80.3447 9.99269 80.6185 10.314 80.7556 10.7603 80.7556 11.3315L80.7556 11.6492ZM79.9559 11.0637C79.9536 10.7662 79.8832 10.5353 79.7452 10.3711 79.6072 10.2045 79.4166 10.1212 79.174 10.1212 78.9359 10.1212 78.7335 10.2081 78.5671 10.3818 78.4026 10.5556 78.3016 10.7829 78.2637 11.0637L79.9559 11.0637Z" fill="#FFFFFF" fill-rule="nonzero" fill-opacity="1" transform="matrix(1.15026 0 0 1 264 634)"/><path d="M83.6651 10.3854C83.565 10.3069 83.4211 10.2676 83.2333 10.2676 82.9879 10.2676 82.7831 10.3782 82.6191 10.5996 82.455 10.8209 82.3728 11.122 82.3728 11.5028L82.3728 13.2522 81.5443 13.2522 81.5443 9.5964 82.3728 9.5964 82.3728 10.3497 82.3869 10.3497C82.4678 10.0926 82.5917 9.8927 82.7585 9.7499 82.9271 9.60472 83.1154 9.53215 83.3224 9.53215 83.4723 9.53215 83.5865 9.55477 83.6651 9.59997L83.6651 10.3854Z" fill="#FFFFFF" fill-rule="nonzero" fill-opacity="1" transform="matrix(1.15026 0 0 1 264 634)"/><path d="M89.927 13.0379C89.5413 13.2379 89.0619 13.3379 88.4884 13.3379 87.7458 13.3379 87.1509 13.1034 86.703 12.6345 86.2557 12.1657 86.0322 11.5504 86.0322 10.7888 86.0322 9.97007 86.2831 9.30842 86.7853 8.80383 87.2898 8.29929 87.9264 8.047 88.6954 8.047 89.1903 8.047 89.6012 8.11719 89.927 8.25761L89.927 9.10018C89.582 8.89545 89.2013 8.79314 88.7845 8.79314 88.2302 8.79314 87.7801 8.97044 87.4351 9.32505 87.0924 9.67971 86.921 10.1534 86.921 10.746 86.921 11.31 87.0814 11.7599 87.4031 12.0955 87.7244 12.4287 88.1466 12.5953 88.6703 12.5953 89.1533 12.5953 89.5724 12.481 89.927 12.2526L89.927 13.0379Z" fill="#FFFFFF" fill-rule="nonzero" fill-opacity="1" transform="matrix(1.15026 0 0 1 264 634)"/><path d="M93.9003 11.6492 91.4085 11.6492C91.4181 11.9872 91.5218 12.2478 91.7192 12.431 91.9189 12.6143 92.1926 12.706 92.5404 12.706 92.9306 12.706 93.2889 12.5893 93.6147 12.3561L93.6147 13.0237C93.2816 13.2331 92.8415 13.3379 92.2941 13.3379 91.7562 13.3379 91.3335 13.1724 91.0265 12.8416 90.7221 12.5084 90.5695 12.0407 90.5695 11.4385 90.5695 10.8698 90.7372 10.4068 91.0731 10.0498 91.4108 9.6904 91.8298 9.51072 92.3297 9.51072 92.8297 9.51072 93.2163 9.67139 93.49 9.99269 93.7637 10.314 93.9003 10.7603 93.9003 11.3315L93.9003 11.6492ZM93.1006 11.0637C93.0984 10.7662 93.0284 10.5353 92.89 10.3711 92.752 10.2045 92.5619 10.1212 92.3188 10.1212 92.0811 10.1212 91.8787 10.2081 91.7119 10.3818 91.5479 10.5556 91.4469 10.7829 91.4085 11.0637L93.1006 11.0637Z" fill="#FFFFFF" fill-rule="nonzero" fill-opacity="1" transform="matrix(1.15026 0 0 1 264 634)"/><path d="M97.9455 13.2522 97.117 13.2522 97.117 11.1922C97.117 10.5092 96.8757 10.1676 96.3927 10.1676 96.14 10.1676 95.932 10.2628 95.7675 10.4532 95.6035 10.6413 95.5212 10.8793 95.5212 11.1672L95.5212 13.2522 94.6895 13.2522 94.6895 9.5964 95.5212 9.5964 95.5212 10.2033 95.5354 10.2033C95.8091 9.74158 96.2044 9.51072 96.7208 9.51072 97.1183 9.51072 97.4218 9.64045 97.6311 9.89988 97.8408 10.1569 97.9455 10.5294 97.9455 11.0173L97.9455 13.2522Z" fill="#FFFFFF" fill-rule="nonzero" fill-opacity="1" transform="matrix(1.15026 0 0 1 264 634)"/><path d="M100.887 13.2129C100.725 13.2938 100.512 13.3343 100.248 13.3343 99.5389 13.3343 99.1843 12.9939 99.1843 12.3132L99.1843 10.2462 98.5738 10.2462 98.5738 9.5964 99.1843 9.5964 99.1843 8.75027 100.012 8.51466 100.012 9.5964 100.887 9.5964 100.887 10.2462 100.012 10.2462 100.012 12.0741C100.012 12.2906 100.052 12.4453 100.13 12.5382 100.209 12.631 100.34 12.6774 100.523 12.6774 100.664 12.6774 100.785 12.6369 100.887 12.556L100.887 13.2129Z" fill="#FFFFFF" fill-rule="nonzero" fill-opacity="1" transform="matrix(1.15026 0 0 1 264 634)"/><path d="M104.654 11.6492 102.161 11.6492C102.171 11.9872 102.275 12.2478 102.472 12.431 102.672 12.6143 102.946 12.706 103.293 12.706 103.684 12.706 104.042 12.5893 104.368 12.3561L104.368 13.0237C104.035 13.2331 103.595 13.3379 103.047 13.3379 102.509 13.3379 102.087 13.1724 101.78 12.8416 101.475 12.5084 101.323 12.0407 101.323 11.4385 101.323 10.8698 101.491 10.4068 101.826 10.0498 102.164 9.6904 102.583 9.51072 103.083 9.51072 103.583 9.51072 103.969 9.67139 104.243 9.99269 104.517 10.314 104.654 10.7603 104.654 11.3315L104.654 11.6492ZM103.854 11.0637C103.851 10.7662 103.781 10.5353 103.643 10.3711 103.505 10.2045 103.315 10.1212 103.072 10.1212 102.834 10.1212 102.632 10.2081 102.465 10.3818 102.301 10.5556 102.2 10.7829 102.161 11.0637L103.854 11.0637Z" fill="#FFFFFF" fill-rule="nonzero" fill-opacity="1" transform="matrix(1.15026 0 0 1 264 634)"/><path d="M107.563 10.3854C107.463 10.3069 107.319 10.2676 107.132 10.2676 106.886 10.2676 106.681 10.3782 106.517 10.5996 106.353 10.8209 106.271 11.122 106.271 11.5028L106.271 13.2522 105.443 13.2522 105.443 9.5964 106.271 9.5964 106.271 10.3497 106.285 10.3497C106.366 10.0926 106.49 9.8927 106.656 9.7499 106.825 9.60472 107.014 9.53215 107.221 9.53215 107.37 9.53215 107.485 9.55477 107.563 9.59997L107.563 10.3854Z" fill="#FFFFFF" fill-rule="nonzero" fill-opacity="1" transform="matrix(1.15026 0 0 1 264 634)"/></g></g></g></g></g></svg>